# xmcd
#
# Track frame offsets:
#	150
#	15828
#	32106
#	49208
#	68411
#	81763
#	95041
#	107592
#	122145
#	136624
#	155977
#	173455
#	190859
#	206988
#	224541
#	240969
#	258522
#	276900
#	292204
#
# Disc length: 4108 seconds
#
# Revision: 2
# Processed by: cddbd v1.5.2PL0 Copyright (c) Steve Scherf et al.
# Submitted via: audiograbber 1.83.01
#
DISCID=13100a13
DTITLE=Various Artist - Promo Only Country Radio May 2009
DYEAR=2009
DGENRE=Country
TTITLE0=Jack Ingram - Barefoot And Crazy (Double Dog Dare Ya Mix)
TTITLE1=Toby Keith - Lost You Anyway (Album Version)
TTITLE2=Keith Urban - Kiss A Girl
TTITLE3=Brad Paisley - Then
TTITLE4=Joey and Rory - Play The Song
TTITLE5=Tracy Lawrence - Up To Him
TTITLE6=Stephen Cochran - Wal-Mart Flowers
TTITLE7=Jo Dee Messina - Shine
TTITLE8=Williams Riley - I'm Still Me
TTITLE9=Carrie Underwood and Randy Travis - I Told You So (New Duet Version)
TTITLE10=Billy Currington - People Are Crazy
TTITLE11=Miley Cyrus - The Climb (Guitar Intro)
TTITLE12=Bomshel - Fight Like A Girl
TTITLE13=Telluride - Pencil Marks
TTITLE14=Caitlin and Will - Address In The Stars
TTITLE15=Marcel - Believin' (Album Version)
TTITLE16=Martina McBride - Ride (Live Wal-Mart Version)
TTITLE17=Matt Gary - The Days You Live For
TTITLE18=Derek Sholl - But It Was
EXTD=
EXTT0=
EXTT1=
EXTT2=
EXTT3=
EXTT4=
EXTT5=
EXTT6=
EXTT7=
EXTT8=
EXTT9=
EXTT10=
EXTT11=
EXTT12=
EXTT13=
EXTT14=
EXTT15=
EXTT16=
EXTT17=
EXTT18=
PLAYORDER=
